<svg width="100" height="100" viewBox="0 0 100 100" fill="none" xmlns="http://www.w3.org/2000/svg">
<path d="M25.3868 72.3598C29.0847 76.3702 33.3556 79.339 38.3556 81.1619C57.0014 88.0369 77.2879 77.3598 82.1577 58.115C82.6264 56.2661 83.4858 54.7817 85.4649 54.2869C88.4077 53.5577 91.1941 56.0577 90.491 59.0525C89.7879 62.0213 88.8764 65.0421 87.5222 67.7765C80.8295 81.24 69.9701 89.2869 55.0483 91.214C41.6368 92.9327 30.0222 88.6619 20.3868 79.1827C20.1004 78.9223 19.866 78.6098 19.4493 78.1411C17.7566 79.8858 16.1681 81.5265 14.5535 83.1671C14.267 83.4796 13.9545 83.7921 13.642 84.0265C12.4181 84.9379 10.7774 84.365 10.4128 82.8806C10.3347 82.5161 10.3087 82.0994 10.3087 81.7088C10.3087 76.214 10.3087 70.7192 10.3087 65.2244C10.3087 63.115 10.9858 62.4379 13.1212 62.4379C18.6941 62.4379 24.267 62.4379 29.8139 62.4379C30.8816 62.4379 31.767 62.6983 32.2097 63.74C32.6524 64.7817 32.2097 65.589 31.4285 66.3442C29.4233 68.3494 27.4441 70.3286 25.3868 72.3598Z" fill="#2A8BB3"/>
<path d="M74.3712 27.6202C72.0014 25.0161 69.3451 22.8546 66.3243 21.1358C47.1837 10.2244 23.0431 20.5108 17.6524 41.839C17.1837 43.6619 16.3764 45.1463 14.4754 45.6671C11.3243 46.5525 8.51181 43.74 9.34515 40.4848C9.91806 38.2192 10.5691 35.9536 11.5327 33.8442C18.0431 19.4952 29.0847 10.8754 44.7358 8.7921C58.0951 7.02127 69.6837 11.2921 79.3191 20.7192C79.5795 20.9796 79.8139 21.24 80.0743 21.4744C80.1264 21.5265 80.1785 21.5525 80.3087 21.6567C80.517 21.4744 80.7514 21.2661 80.9858 21.0577C82.5743 19.4692 84.1889 17.9067 85.7774 16.3181C86.4545 15.6411 87.2097 15.3025 88.1472 15.6671C89.1368 16.0577 89.5014 16.839 89.5014 17.8286C89.5014 23.6098 89.5274 29.3911 89.5014 35.1723C89.5014 36.7348 88.6681 37.5161 87.1316 37.5161C81.3243 37.5161 75.5431 37.5161 69.7358 37.5161C68.7722 37.5161 68.017 37.1515 67.6264 36.24C67.2097 35.3025 67.4962 34.4692 68.2254 33.7661C70.0222 31.9952 71.8191 30.1983 73.616 28.4015C73.8504 28.1671 74.0847 27.9067 74.3712 27.6202Z" fill="#2A8BB3"/>
</svg>
