<svg width="100" height="100" viewBox="0 0 100 100" fill="none" xmlns="http://www.w3.org/2000/svg">
<path d="M92 45.6439C92 46.1162 92 46.6223 92 47.0946C91.1862 49.1526 89.762 50.6707 87.8291 51.6828C86.8797 52.1889 85.8963 52.1552 85.0824 51.3117C84.7094 50.9406 84.3025 50.637 83.76 50.1647C83.76 50.6707 83.76 50.9744 83.76 51.3117C83.76 62.7487 83.76 74.1856 83.76 85.5889C83.76 88.1866 82.1323 89.941 79.5891 89.9747C74.5366 90.0084 69.484 90.0084 64.4315 89.9747C62.6343 89.9747 61.2779 88.9963 60.7692 87.4107C60.5658 86.7697 60.5319 86.0949 60.5319 85.4202C60.5319 77.4582 60.5319 69.4962 60.5319 61.5341C60.5319 61.2305 60.5319 60.9269 60.5319 60.5895C54.2925 60.5895 48.1888 60.5895 42.0172 60.5895C42.0172 60.9606 42.0172 61.2305 42.0172 61.5341C42.0172 65.144 42.0172 68.7539 42.0172 72.3301C42.0172 76.7159 42.0172 81.1018 42.0172 85.4876C42.0172 88.1866 40.3896 89.941 37.7446 89.941C33.0312 89.9747 28.3516 89.9747 23.6382 89.941C21.8749 89.941 20.4846 89.165 19.7725 87.5456C19.4673 86.8709 19.3995 86.0274 19.3995 85.2515C19.3656 73.7471 19.3995 62.2426 19.3995 50.7045C19.3995 50.4008 19.3995 50.0972 19.3995 49.5911C18.45 50.4346 17.704 51.1768 16.8563 51.8178C16.3476 52.2226 15.7373 52.6275 15.1269 52.7962C13.228 53.336 11.8037 52.4588 10.5491 51.1093C8.41279 48.8489 8.48061 46.656 10.7865 44.5643C22.7905 33.6671 34.8623 22.6688 46.9002 11.6704C49.3078 9.47747 51.6136 9.44373 54.0891 11.5692C65.9574 21.9265 77.8597 32.2502 89.7281 42.5738C90.7114 43.4509 91.627 44.3619 92 45.6439Z" fill="#1E69DE"/>
</svg>
