<svg width="100" height="100" viewBox="0 0 100 100" fill="none" xmlns="http://www.w3.org/2000/svg">
<path d="M77.1735 28.2073C76.496 27.575 75.8185 26.9652 75.1636 26.3103C73.1086 24.2779 71.031 22.2455 68.9986 20.1679C67.5759 18.7 67.5985 16.4643 68.976 15.0642C70.3761 13.6415 72.6118 13.6415 74.1474 15.0868C74.2152 15.1545 74.2603 15.1997 74.3281 15.2675C79.0027 19.9421 83.6998 24.6167 88.3744 29.3138C90.0004 30.9398 90.0907 33.0625 88.5099 34.6433C83.745 39.4534 78.9575 44.2183 74.17 48.9833C72.657 50.4737 70.4439 50.4511 69.0212 49.0284C67.5759 47.5831 67.621 45.3475 69.1341 43.8118C69.4276 43.5183 69.7212 43.2247 70.0374 42.9085C72.2053 40.7406 74.3958 38.5727 76.5637 36.4048C76.7444 36.2241 76.9251 36.0209 77.2638 35.6595C76.7218 35.6595 76.3831 35.6595 76.0218 35.6595C55.5394 35.6595 35.057 35.6595 14.5745 35.6595C13.9648 35.6595 13.3325 35.6144 12.7454 35.4563C11.1194 34.9821 10.0806 33.2884 10.2839 31.6624C10.5323 29.8558 11.9098 28.546 13.6712 28.4557C13.9874 28.4331 14.281 28.4557 14.5971 28.4557C35.0795 28.4557 55.5619 28.4557 76.0443 28.4557C76.3831 28.4557 76.7218 28.4557 77.0606 28.4557C77.0606 28.3428 77.1057 28.275 77.1735 28.2073Z" fill="#2A8BB3"/>
<path d="M22.6365 71.9272C23.314 72.5595 23.9915 73.1692 24.6464 73.8241C26.6562 75.8114 28.6435 77.7986 30.6307 79.7859C32.1889 81.3667 32.2567 83.6024 30.8114 85.0702C29.3661 86.5381 27.0853 86.4929 25.5271 84.9347C20.8073 80.2376 16.1101 75.5404 11.4356 70.8206C9.78702 69.1495 9.78702 67.0267 11.4581 65.3556C16.1553 60.6359 20.8525 55.9387 25.5497 51.2415C27.1304 49.6607 29.3661 49.6382 30.8114 51.106C32.2567 52.5739 32.189 54.8096 30.6082 56.3903C27.9886 59.0325 25.369 61.6747 22.6139 64.4523C23.0656 64.4523 23.4043 64.4523 23.7431 64.4523C44.2481 64.4523 64.753 64.4523 85.258 64.4523C85.8678 64.4523 86.5001 64.4975 87.0872 64.6782C88.668 65.1524 89.7068 66.8009 89.5261 68.4043C89.3229 70.2109 87.9454 71.5433 86.2065 71.6788C85.8678 71.7013 85.529 71.7013 85.1903 71.7013C64.6853 71.7013 44.1803 71.7013 23.6753 71.7013C23.3817 71.7013 23.0656 71.7013 22.772 71.7013C22.7494 71.7917 22.6817 71.8594 22.6365 71.9272Z" fill="#2A8BB3"/>
</svg>
