<svg width="100" height="100" viewBox="0 0 100 100" fill="none" xmlns="http://www.w3.org/2000/svg">
<path d="M30.124 80.0951C26.9819 74.5589 23.74 68.8482 20.523 63.1624C20.5978 63.0626 20.5978 62.9878 20.6477 62.9629C24.5879 60.7185 28.5031 58.3993 32.4931 56.2048C35.6103 54.4841 38.8023 54.3594 42.2188 55.5813C46.8073 57.2272 51.4956 58.5738 56.159 60.0452C56.6577 60.1948 57.1814 60.2696 57.7051 60.3693C60.8223 61.0177 62.4682 64.3594 61.0218 67.2272C58.6278 66.5788 56.1839 65.9304 53.765 65.307C51.2462 64.6337 48.7275 63.9604 46.1839 63.2871C44.9619 62.9629 44.0392 63.4367 43.74 64.4841C43.4407 65.5065 44.0143 66.4541 45.2363 66.7534C49.4009 67.8257 53.5405 68.9479 57.7051 69.9205C60.2986 70.519 62.8423 70.12 65.2113 68.8232C70.947 65.706 76.6827 62.5888 82.4433 59.4965C84.7126 58.2746 87.0568 57.302 89.7251 57.5264C91.9196 57.701 93.5655 59.0477 94.0892 61.1175C94.6628 63.3868 93.8648 65.7559 92.0194 66.8531C81.9944 72.8382 71.9695 78.7983 61.9196 84.7335C59.3261 86.2547 56.5081 86.5539 53.6153 85.8058C46.4582 83.9355 39.3011 81.9903 32.144 80.12C31.5953 79.9454 30.947 80.0951 30.124 80.0951Z" fill="#2A8BB3"/>
<path d="M55.76 8.0002C67.2562 8.05008 76.5081 17.3269 76.4582 28.7484C76.4084 40.2197 67.1066 49.4716 55.6602 49.4217C44.1639 49.3718 34.9121 40.095 34.9619 28.6735C35.0118 17.2022 44.3136 7.95033 55.76 8.0002ZM53.4408 16.4291C53.0418 16.5788 52.6178 16.7035 52.2188 16.8531C49.1515 18.0002 47.2063 20.5688 47.1565 23.4865C47.1066 26.3793 48.9021 28.9728 51.9694 30.1698C53.1664 30.6187 54.4881 30.7683 55.7849 30.9429C56.9819 31.0925 58.129 31.3169 59.0268 32.1898C60.0742 33.1873 60.0742 34.4591 59.0767 35.4815C57.1315 37.4516 53.2662 37.0277 51.7949 34.6835C51.0218 33.4616 49.7999 33.0875 48.6777 33.686C47.5305 34.3344 47.2313 35.6062 47.9295 36.9279C48.9021 38.7484 50.4233 39.9454 52.3435 40.5938C53.1664 40.8681 53.5156 41.1923 53.5156 42.115C53.5156 43.3868 54.538 44.3095 55.735 44.2845C56.9071 44.2596 57.9046 43.4117 57.9046 42.1648C57.9046 41.2172 58.2537 40.8681 59.1266 40.5688C62.2936 39.4716 64.2887 36.8032 64.2887 33.8356C64.2887 30.893 62.3685 28.2496 59.2263 27.1523C57.9545 26.7035 56.558 26.6037 55.2113 26.4292C54.0642 26.2795 53.0418 25.9055 52.2437 25.0326C51.5206 24.2346 51.4457 23.2122 52.0442 22.3892C53.0916 20.9678 54.6128 20.5937 56.2837 20.7434C57.8049 20.868 59.0517 21.4416 59.7251 22.9129C60.3984 24.3344 61.5704 24.883 62.7924 24.3094C64.0143 23.7608 64.4133 22.489 63.7899 21.0426C62.9171 19.0476 61.4208 17.6511 59.4258 16.9528C58.3784 16.5788 57.9046 16.1548 57.8797 15.0077C57.8547 13.8855 56.7824 13.1124 55.6852 13.1124C54.5879 13.1374 53.6652 13.9354 53.5156 15.0576C53.4657 15.5314 53.4657 15.9553 53.4408 16.4291Z" fill="#2A8BB3"/>
<path d="M12.6676 61.4167C14.0891 61.4417 14.7624 62.0901 15.2861 63.0127C17.8048 67.4766 20.3485 71.9404 22.8672 76.4043C24.4881 79.2721 26.1091 82.14 27.73 85.0078C28.7275 86.7784 28.3784 88.0502 26.6328 89.0477C25.3111 89.7958 23.9894 90.544 22.6427 91.2921C20.9968 92.1898 19.6751 91.8407 18.7774 90.2447C14.5629 82.8382 10.3734 75.4317 6.18385 68.0252C5.28609 66.4292 5.63522 65.1574 7.2063 64.2347C8.62774 63.4118 10.0741 62.5888 11.5205 61.8157C11.9694 61.5913 12.4681 61.4915 12.6676 61.4167Z" fill="#2A8BB3"/>
</svg>
