<svg width="100" height="100" viewBox="0 0 100 100" fill="none" xmlns="http://www.w3.org/2000/svg">
<path d="M12.2516 19.3691C13.4413 19.3691 14.565 19.3691 15.6887 19.3691C22.8272 19.3691 29.5692 17.6836 36.1128 14.9405C40.7397 13.0237 45.0691 10.5781 49.1671 7.63672C49.729 7.24013 50.0925 7.24013 50.6543 7.63672C55.7108 11.2721 61.1639 14.1473 67.0135 16.2294C72.8632 18.3115 78.8781 19.4682 85.0912 19.3691C85.8183 19.3691 86.5784 19.3691 87.3386 19.3691C87.4047 19.3691 87.4377 19.4021 87.6029 19.4682C87.7021 20.3936 87.8673 21.352 87.9334 22.3104C88.297 27.8296 87.9004 33.3157 87.2064 38.7687C86.1488 46.8987 84.1659 54.7644 80.7949 62.2334C76.3663 72.1811 69.9218 80.4764 60.7673 86.5243C57.4624 88.7055 53.8601 90.358 50.2247 91.9113C49.6629 92.1426 48.7706 91.8782 48.1096 91.6138C40.4753 88.4742 33.8986 83.8143 28.5116 77.535C21.7366 69.6694 17.5063 60.5149 14.8955 50.5672C12.4829 41.2804 11.3923 31.8615 11.888 22.2774C11.9211 21.4842 12.0533 20.691 12.1524 19.8978C12.1194 19.7656 12.1855 19.6334 12.2516 19.3691ZM19.4232 27.0033C19.4232 27.3999 19.3901 27.7304 19.4232 28.0609C19.6876 31.6632 19.8198 35.2656 20.2825 38.8348C21.3731 47.3284 23.6865 55.4914 27.7184 63.0596C32.6427 72.2802 39.6491 79.3527 49.2002 83.8473C49.6959 84.0787 50.0925 84.0787 50.6213 83.8473C60.2055 79.4849 67.2449 72.4785 72.1361 63.2579C78.0518 52.0544 80.2 39.9585 80.3983 27.433C80.3983 27.3008 80.3322 27.1686 80.2992 27.0033C79.539 26.9372 78.845 26.8711 78.1179 26.772C68.2033 25.45 59.0818 22.046 50.5882 16.7582C50.0595 16.4277 49.6959 16.4277 49.1671 16.7582C44.1768 19.9309 38.8229 22.3435 33.2046 24.1611C28.743 25.6153 24.2153 26.5737 19.4232 27.0033Z" fill="#1E69DE"/>
<path d="M49.8612 19.4682C49.8612 39.7932 49.8612 59.9861 49.8612 80.3772C48.4401 79.6832 47.052 79.0553 45.7301 78.3282C37.5009 73.7344 31.9156 66.8272 28.2472 58.2675C24.4136 49.2122 23.0255 39.7271 23.1577 29.9447C23.1577 29.5151 23.2238 29.0524 23.2568 28.5566C33.0724 28.3583 41.7312 24.9543 49.8612 19.4682Z" fill="#1E69DE"/>
</svg>
