<svg width="100" height="100" viewBox="0 0 100 100" fill="none" xmlns="http://www.w3.org/2000/svg">
<path d="M34.1484 7.79202C35.1373 8.25349 35.7086 9.06656 36.258 9.96753C41.466 18.9113 46.696 27.8331 51.9041 36.7769C52.0579 37.0625 52.2117 37.3482 52.4095 37.6998C45.1798 37.2383 38.6752 39.0623 32.72 43.1935C32.5662 42.9298 32.4124 42.6881 32.2805 42.4464C26.7209 32.3819 21.1832 22.3174 15.6236 12.2529C14.4809 10.1873 14.9204 8.82484 17.03 7.79202C22.7434 7.79202 28.4349 7.79202 34.1484 7.79202Z" fill="#1E69DE"/>
<path d="M83.1523 7.79202C85.2619 8.84682 85.7014 10.1873 84.5587 12.2529C79.0211 22.3174 73.4614 32.3819 67.9238 42.4684C67.7919 42.7101 67.6601 42.9298 67.6161 43.0177C65.3527 41.875 63.1772 40.6884 60.8918 39.6995C59.815 39.2381 59.0459 38.6667 58.4526 37.6119C56.9583 34.909 55.3761 32.25 53.7939 29.5911C53.5302 29.1516 53.5522 28.8439 53.7939 28.4044C57.2879 22.1196 60.7599 15.8128 64.2979 9.52804C64.6934 8.84682 65.4626 8.38534 66.0559 7.814C71.7474 7.79202 77.4608 7.79202 83.1523 7.79202Z" fill="#1E69DE"/>
<path d="M50.1241 42.8639C63.7046 42.9079 74.692 53.9612 74.6481 67.4977C74.6041 81.0782 63.5508 92.0656 49.9923 91.9997C36.4557 91.9558 25.4903 80.8804 25.5562 67.3879C25.6221 53.8294 36.6315 42.8419 50.1241 42.8639ZM64.2979 64.9047C64.1221 63.3665 63.1992 62.3556 61.6389 62.0919C59.7711 61.7843 57.9032 61.5425 56.0353 61.2129C55.7057 61.147 55.3102 60.8613 55.1564 60.5537C54.2774 58.7957 53.4423 57.0157 52.6292 55.2138C52.1238 54.0931 51.2668 53.4997 50.0582 53.5217C48.8935 53.5217 48.0585 54.0931 47.5531 55.1918C46.74 56.9937 45.9049 58.7737 45.0259 60.5317C44.8941 60.8174 44.5425 61.147 44.2348 61.1909C42.4109 61.5206 40.565 61.7843 38.7192 62.048C37.5545 62.2018 36.6096 62.6852 36.214 63.8499C35.8185 65.0146 36.192 65.9815 37.0491 66.8385C38.4335 68.2009 39.7959 69.6073 41.1144 71.0137C41.3561 71.2554 41.51 71.7389 41.444 72.0685C41.1584 74.0682 40.8507 76.0679 40.4771 78.0676C40.2574 79.2323 40.5211 80.1992 41.466 80.9244C42.4549 81.6715 43.4877 81.5836 44.5425 80.9903C46.0807 80.1113 47.6629 79.2982 49.2012 78.3973C49.8165 78.0457 50.2779 78.0017 50.9152 78.3753C52.5194 79.3202 54.1675 80.1992 55.7936 81.1002C56.7825 81.6276 57.7494 81.6056 58.6504 80.9463C59.5513 80.2871 59.881 79.3642 59.6832 78.2654C59.3316 76.2217 58.98 74.1561 58.6943 72.1125C58.6504 71.7828 58.7822 71.2994 59.0239 71.0357C60.3644 69.5853 61.7928 68.2229 63.1332 66.7726C63.6387 66.2671 63.9243 65.542 64.2979 64.9047Z" fill="#1E69DE"/>
</svg>
