<svg width="32" height="32" viewBox="0 0 32 32" fill="none" xmlns="http://www.w3.org/2000/svg">
<path d="M28.858 0H3.14202C1.40673 0 0 1.40673 0 3.14202V28.858C0 30.5933 1.40673 32 3.14202 32H28.858C30.5933 32 32 30.5933 32 28.858V3.14202C32 1.40673 30.5933 0 28.858 0Z" fill="url(#paint0_linear_771_1391)"/>
<path d="M20.7442 28C20.605 28 20.4717 27.9431 20.3673 27.8412L9.57733 17.2617C9.55414 17.2378 9.52805 17.2258 9.50196 17.2258C9.43818 17.2258 9.3715 17.2917 9.3715 17.3966V27.3139C9.3715 27.6554 9.11929 27.9341 8.8091 27.9341H6.5624C6.25221 27.9341 6 27.6554 6 27.3139V10.0979C6 9.75635 6.25511 9.47771 6.5653 9.47771C6.70155 9.47771 6.8349 9.53464 6.93927 9.63651L21.7588 24.1679C21.782 24.1889 21.8081 24.2009 21.8342 24.2009H22.5009C22.5705 24.2009 22.6285 24.123 22.6285 24.0301V13.7143C22.6285 13.6574 22.6082 13.6064 22.5705 13.5735L16.1058 7.78787C16.0855 7.76989 16.0594 7.75791 16.0333 7.75791C16.0072 7.75791 15.9812 7.7699 15.958 7.79087L12.3893 11.1496C12.2908 11.2424 12.1719 11.2934 12.0415 11.2934C11.8907 11.2934 11.7371 11.2245 11.6066 11.0986L9.96289 9.35786C9.75417 9.07622 9.78316 8.69871 10.0151 8.47999L15.6072 3.1528C15.7087 3.05393 15.842 3 15.9754 3C16.1087 3 16.2305 3.05093 16.3319 3.13782L25.7913 11.605C25.9217 11.7218 26 11.8986 26 12.0844V27.3768C26 27.7184 25.7478 27.997 25.4376 27.997H20.7413L20.7442 28Z" fill="white"/>
<path d="M15.9787 3.44154C16.0525 3.44154 16.1263 3.46803 16.1887 3.52396L25.4467 11.8426C25.529 11.9162 25.5772 12.028 25.5772 12.1487V27.1728C25.5772 27.3877 25.4269 27.5614 25.2396 27.5614H20.6432C20.5609 27.5614 20.4843 27.529 20.4219 27.4672L9.86154 17.0734C9.79628 17.0086 9.71684 16.9792 9.64307 16.9792C9.46716 16.9792 9.3026 17.1352 9.3026 17.3677V27.111C9.3026 27.3259 9.15222 27.4996 8.96496 27.4996H6.76607C6.57881 27.4996 6.42843 27.3259 6.42843 27.111V10.1971C6.42843 9.96456 6.59299 9.80855 6.7689 9.80855C6.84551 9.80855 6.92212 9.83799 6.98737 9.90274L21.4916 24.1792C21.554 24.241 21.6306 24.2734 21.7129 24.2734H22.3654C22.5527 24.2734 22.7031 24.0997 22.7031 23.8848V13.75C22.7031 13.6323 22.6548 13.5175 22.5726 13.4439L16.2454 7.7598C16.183 7.70387 16.1092 7.67738 16.0355 7.67738C15.9589 7.67738 15.8823 7.70682 15.817 7.76863L12.3271 11.0684C12.2676 11.1243 12.1995 11.1508 12.1314 11.1508C12.0349 11.1508 11.9356 11.1008 11.8505 11.0184L10.2474 9.31402C10.1282 9.14918 10.1453 8.90486 10.29 8.76946L15.7631 3.53574C15.8255 3.47686 15.9021 3.44448 15.9816 3.44448M15.9787 3C15.7915 3 15.6127 3.07359 15.4737 3.20605L10.0006 8.43977C9.69414 8.73119 9.65442 9.2316 9.90694 9.576L9.92396 9.59661L9.94098 9.61721L11.544 11.3216L11.5497 11.3274L11.5582 11.3333C11.7256 11.4952 11.9271 11.5835 12.1285 11.5835C12.3101 11.5835 12.4775 11.5158 12.6137 11.3834L15.878 8.30001C15.9678 8.21518 16.1046 8.21341 16.1964 8.29589L22.1918 13.6815C22.2444 13.7288 22.2746 13.7974 22.2746 13.8696V23.823H21.7526L7.27678 9.57895C7.13491 9.4406 6.95333 9.36406 6.76607 9.36406C6.34331 9.36406 6 9.73496 6 10.1942V27.1081C6 27.5643 6.34331 27.9382 6.76323 27.9382H8.96212C9.38488 27.9382 9.72535 27.5673 9.72535 27.1081V17.5473L20.1268 27.7851C20.2687 27.9235 20.4503 28 20.6404 28H25.2368C25.6595 28 26 27.6291 26 27.1699V12.1458C26 11.8985 25.8979 11.666 25.7248 11.507L16.4667 3.19133C16.3305 3.0677 16.1575 3 15.9787 3Z" fill="white"/>
<defs>
<linearGradient id="paint0_linear_771_1391" x1="16" y1="0" x2="16" y2="32" gradientUnits="userSpaceOnUse">
<stop stop-color="#2E8AB8"/>
<stop offset="1" stop-color="#0B95DA"/>
</linearGradient>
</defs>
</svg>
